<svg width="1008" height="528" viewBox="0 0 1008 528" fill="none" xmlns="http://www.w3.org/2000/svg">
<g opacity="0.3">
<path d="M29.463 296.909V294.591H112L143.237 266.831H725.215L767.426 306.208L893.944 303.652L937.964 344.694H1001.4V347.012H936.933L892.914 306.002L766.396 308.558L724.151 269.181H144.233L113.03 296.909H29.463Z" fill="#EF0753"/>
<path d="M29.463 347.012V344.694H98.9016L143.451 301.815H439.728L499.154 365.917H542.999L608.885 427.906H713.147V430.224H607.82L541.968 368.23H498.022L438.595 304.128H144.515L99.932 347.012H29.463Z" fill="#EF0753"/>
<path d="M12.4567 190.637V188.286H97.5842L138.731 225.346H441.822L545.02 138.048L594.226 129.193L623.12 101.362V57.5966L681.02 6.81303L682.721 8.51515L625.604 58.5852V102.285L595.465 131.338L546.158 140.193L442.785 227.696H137.735L96.5587 190.637H12.4567Z" fill="#EF0753"/>
<path d="M413.565 373.546V345.818L437.069 324.94V302.971H439.553V325.961L416.054 346.807V372.59L470.581 424.637V500.594L489.147 516.057L487.475 517.792L468.058 501.647V425.589L413.565 373.546Z" fill="#EF0753"/>
<path d="M448.569 521.131V445.245L465.823 423.476L467.811 424.875L451.052 445.991V521.131H448.569Z" fill="#EF0753"/>
<path d="M510.833 394.083V367.311H513.322V393.095L561.599 436.967V515.614H559.081V437.956L510.833 394.083Z" fill="#EF0753"/>
<path d="M432.807 355.257V328.825H435.33V354.301L492.943 409.137V430.327H490.426V410.093L432.807 355.257Z" fill="#EF0753"/>
<path d="M559.081 450.048V438.637H561.599V448.989L584.85 467.927V491.84H582.367V468.985L559.081 450.048Z" fill="#EF0753"/>
<path d="M607.358 446.742V429.063H609.842V445.753L625.108 460.06V484.552H622.624V461.011L607.358 446.742Z" fill="#EF0753"/>
<path d="M468.272 268.537L470.614 267.684L485.171 302.085L550.488 302.155L620.884 368.468L754.823 365.88L755.212 366.29L812.758 424.67H866.93L916.699 470.79L914.925 472.422L865.9 427.02H811.659L811.304 426.647L753.72 368.23L619.854 370.818L549.457 304.468L483.465 304.403L468.272 268.537Z" fill="#EF0753"/>
<path d="M582.649 268.775L584.535 267.241L616.414 301.097H667.636V303.447H615.31L582.649 268.775Z" fill="#EF0753"/>
<path d="M615.878 268.705L617.832 267.311L628.729 280.354H715.134V282.704H627.484L615.878 268.705Z" fill="#EF0753"/>
<path d="M752.763 366.36L768.311 351.61L788.155 353.349L827.878 394.801H877.934V397.147H826.746L786.95 355.597L769.273 354.063L754.537 367.992L752.763 366.36Z" fill="#EF0753"/>
<path d="M526.031 267.344L559.081 241.084L580.272 232.159L633.414 184.542L687.445 188.967L739.878 146.494V116.658L768.102 88.9995H815.528L883.577 30.8246L885.283 32.5267L816.52 91.3498H769.2L742.396 117.576V147.585L688.296 191.355L634.337 186.925L581.477 234.201L560.286 243.127L527.659 269.116L526.031 267.344Z" fill="#EF0753"/>
<path d="M701.079 267.138L750.527 226.605H783.436L824.009 172.618H937.54V174.968H825.326L784.748 228.955H751.484L702.712 268.878L701.079 267.138Z" fill="#EF0753"/>
<path d="M687.869 191.317V189.004H727.028L789.152 135.082H847.723L889.9 93.8726L891.708 95.4721L848.792 137.4H790.143L727.985 191.317H687.869Z" fill="#EF0753"/>
<path d="M502.245 176.535L502.882 174.287L531.922 181.408L563.518 147.958H640.588L694.367 108.142L695.893 109.947L641.472 150.308H564.651L532.772 183.996L502.245 176.535Z" fill="#EF0753"/>
<path d="M618.221 109.098V106.748H659.295L692.875 79.3931V52.3832L735.509 14.1019L737.249 15.7714L695.397 53.3718V80.4517L660.218 109.098H618.221Z" fill="#EF0753"/>
<path d="M421.094 225.584L446.44 208.52V164.345L433.482 151.194V114.513L502.814 47.5146V8.47791H505.332V48.4659L436.005 115.464V150.308L448.923 163.421V209.714L422.547 227.458L421.094 225.584Z" fill="#EF0753"/>
<path d="M487.334 186.892V136.006L529.58 99.4547V71.8012L604.234 4.97118L605.974 6.64065L532.097 72.7852V100.481L489.818 137.027V186.892H487.334Z" fill="#EF0753"/>
<path d="M160.384 366.02V316.253H384.812V366.02H382.328V318.57H162.906V366.02H160.384Z" fill="#EF0753"/>
<path d="M160.384 207.294V157.532H162.906V204.944H382.328V157.532H384.812V207.294H160.384Z" fill="#EF0753"/>
<path d="M44.7629 346.942C44.7629 347.66 44.69 348.369 44.5393 349.068C44.3886 349.772 44.1699 350.453 43.8734 351.115C43.5818 351.778 43.2222 352.403 42.7945 352.999C42.3667 353.592 41.8856 354.147 41.3412 354.65C40.8017 355.159 40.2088 355.606 39.5721 356.007C38.9354 356.404 38.2598 356.739 37.5551 357.015C36.8455 357.285 36.1164 357.495 35.3631 357.635C34.6098 357.775 33.8516 357.845 33.0836 357.845C32.3157 357.845 31.5575 357.775 30.8042 357.635C30.0557 357.495 29.3218 357.285 28.6171 357.015C27.9075 356.739 27.2319 356.404 26.5952 356.007C25.9585 355.606 25.3655 355.159 24.826 354.65C24.2817 354.147 23.8005 353.592 23.3728 352.999C22.9451 352.403 22.5855 351.778 22.2938 351.115C22.0022 350.453 21.7787 349.772 21.628 349.068C21.4773 348.369 21.4044 347.66 21.4044 346.942C21.4044 346.228 21.4773 345.519 21.628 344.815C21.7787 344.116 22.0022 343.435 22.2938 342.773C22.5855 342.111 22.9451 341.481 23.3728 340.889C23.8005 340.292 24.2817 339.742 24.826 339.238C25.3655 338.73 25.9585 338.277 26.5952 337.881C27.2319 337.485 27.9075 337.149 28.6171 336.874C29.3218 336.599 30.0557 336.393 30.8042 336.253C31.5575 336.114 32.3157 336.044 33.0836 336.044C33.8516 336.044 34.6098 336.114 35.3631 336.253C36.1164 336.393 36.8455 336.599 37.5551 336.874C38.2598 337.149 38.9354 337.485 39.5721 337.881C40.2088 338.277 40.8017 338.73 41.3412 339.238C41.8856 339.742 42.3667 340.292 42.7945 340.889C43.2222 341.481 43.5818 342.111 43.8734 342.773C44.1699 343.435 44.3886 344.116 44.5393 344.815C44.69 345.519 44.7629 346.228 44.7629 346.942Z" fill="#EF0753"/>
<path d="M170.362 365.063C170.362 365.628 170.304 366.192 170.182 366.747C170.066 367.302 169.891 367.838 169.658 368.36C169.424 368.883 169.142 369.382 168.807 369.853C168.467 370.324 168.088 370.757 167.655 371.158C167.227 371.56 166.761 371.914 166.26 372.231C165.755 372.543 165.225 372.809 164.661 373.024C164.102 373.243 163.524 373.406 162.931 373.513C162.338 373.625 161.735 373.681 161.133 373.681C160.525 373.681 159.922 373.625 159.329 373.513C158.736 373.406 158.158 373.243 157.599 373.024C157.04 372.809 156.506 372.543 156.005 372.231C155.5 371.914 155.033 371.56 154.605 371.158C154.178 370.757 153.794 370.324 153.458 369.853C153.118 369.382 152.836 368.883 152.603 368.36C152.37 367.838 152.195 367.302 152.078 366.747C151.961 366.192 151.903 365.628 151.903 365.063C151.903 364.499 151.961 363.94 152.078 363.385C152.195 362.83 152.37 362.289 152.603 361.767C152.836 361.244 153.118 360.745 153.458 360.274C153.794 359.808 154.178 359.37 154.605 358.969C155.033 358.572 155.5 358.213 156.005 357.901C156.506 357.584 157.04 357.318 157.599 357.103C158.158 356.884 158.736 356.721 159.329 356.614C159.922 356.502 160.525 356.446 161.133 356.446C161.735 356.446 162.338 356.502 162.931 356.614C163.524 356.721 164.102 356.884 164.661 357.103C165.225 357.318 165.755 357.584 166.26 357.901C166.761 358.213 167.227 358.572 167.655 358.969C168.088 359.37 168.467 359.808 168.807 360.274C169.142 360.745 169.424 361.244 169.658 361.767C169.891 362.289 170.066 362.83 170.182 363.385C170.304 363.94 170.362 364.499 170.362 365.063Z" fill="#EF0753"/>
<path d="M391.806 363.291C391.806 363.86 391.747 364.42 391.631 364.975C391.509 365.53 391.334 366.066 391.106 366.588C390.872 367.115 390.586 367.61 390.25 368.081C389.915 368.552 389.531 368.985 389.103 369.386C388.676 369.787 388.209 370.142 387.704 370.459C387.198 370.771 386.668 371.037 386.109 371.256C385.55 371.471 384.972 371.634 384.379 371.746C383.781 371.853 383.183 371.909 382.576 371.909C381.968 371.909 381.371 371.853 380.778 371.746C380.18 371.634 379.601 371.471 379.043 371.256C378.484 371.037 377.954 370.771 377.448 370.459C376.943 370.142 376.476 369.787 376.049 369.386C375.621 368.985 375.237 368.552 374.902 368.081C374.566 367.61 374.279 367.115 374.051 366.588C373.818 366.066 373.643 365.53 373.521 364.975C373.405 364.42 373.346 363.86 373.346 363.291C373.346 362.727 373.405 362.168 373.521 361.613C373.643 361.058 373.818 360.517 374.051 359.994C374.279 359.472 374.566 358.978 374.902 358.507C375.237 358.036 375.621 357.597 376.049 357.201C376.476 356.8 376.943 356.441 377.448 356.129C377.954 355.811 378.484 355.546 379.043 355.331C379.601 355.117 380.18 354.953 380.778 354.841C381.371 354.73 381.968 354.674 382.576 354.674C383.183 354.674 383.781 354.73 384.379 354.841C384.972 354.953 385.55 355.117 386.109 355.331C386.668 355.546 387.198 355.811 387.704 356.129C388.209 356.441 388.676 356.8 389.103 357.201C389.531 357.597 389.915 358.036 390.25 358.507C390.586 358.978 390.872 359.472 391.106 359.994C391.334 360.517 391.509 361.058 391.631 361.613C391.747 362.168 391.806 362.727 391.806 363.291Z" fill="#EF0753"/>
<path d="M285.414 316.187C285.414 316.751 285.355 317.311 285.234 317.866C285.117 318.421 284.942 318.962 284.709 319.484C284.481 320.006 284.194 320.505 283.858 320.972C283.523 321.443 283.139 321.881 282.711 322.282C282.284 322.678 281.817 323.038 281.312 323.35C280.806 323.667 280.276 323.933 279.718 324.147C279.154 324.367 278.58 324.53 277.982 324.637C277.389 324.749 276.792 324.805 276.184 324.805C275.577 324.805 274.979 324.749 274.381 324.637C273.788 324.53 273.21 324.367 272.651 324.147C272.092 323.933 271.562 323.667 271.057 323.35C270.551 323.038 270.084 322.678 269.657 322.282C269.229 321.881 268.845 321.443 268.51 320.972C268.174 320.505 267.888 320.006 267.654 319.484C267.426 318.962 267.251 318.421 267.129 317.866C267.013 317.311 266.954 316.751 266.954 316.187C266.954 315.623 267.013 315.059 267.129 314.504C267.251 313.949 267.426 313.412 267.654 312.89C267.888 312.368 268.174 311.869 268.51 311.398C268.845 310.927 269.229 310.493 269.657 310.092C270.084 309.691 270.551 309.337 271.057 309.02C271.562 308.707 272.092 308.441 272.651 308.227C273.21 308.008 273.788 307.844 274.381 307.733C274.979 307.625 275.577 307.569 276.184 307.569C276.792 307.569 277.389 307.625 277.982 307.733C278.58 307.844 279.154 308.008 279.718 308.227C280.276 308.441 280.806 308.707 281.312 309.02C281.817 309.337 282.284 309.691 282.711 310.092C283.139 310.493 283.523 310.927 283.858 311.398C284.194 311.869 284.481 312.368 284.709 312.89C284.942 313.412 285.117 313.949 285.234 314.504C285.355 315.059 285.414 315.623 285.414 316.187Z" fill="#EF0753"/>
<path d="M281.652 204.738C281.652 205.303 281.594 205.867 281.473 206.422C281.356 206.977 281.181 207.513 280.948 208.035C280.714 208.558 280.432 209.057 280.097 209.528C279.757 209.999 279.378 210.432 278.95 210.833C278.518 211.234 278.051 211.589 277.55 211.906C277.045 212.218 276.515 212.484 275.951 212.699C275.392 212.918 274.814 213.081 274.221 213.193C273.628 213.3 273.025 213.356 272.423 213.356C271.815 213.356 271.217 213.3 270.62 213.193C270.027 213.081 269.448 212.918 268.889 212.699C268.33 212.484 267.796 212.218 267.295 211.906C266.79 211.589 266.323 211.234 265.895 210.833C265.468 210.432 265.084 209.999 264.748 209.528C264.408 209.057 264.126 208.558 263.893 208.035C263.66 207.513 263.485 206.977 263.368 206.422C263.251 205.867 263.193 205.303 263.193 204.738C263.193 204.174 263.251 203.615 263.368 203.06C263.485 202.505 263.66 201.964 263.893 201.441C264.126 200.919 264.408 200.42 264.748 199.954C265.084 199.483 265.468 199.045 265.895 198.643C266.323 198.247 266.79 197.888 267.295 197.576C267.796 197.258 268.33 196.993 268.889 196.778C269.448 196.559 270.027 196.396 270.62 196.288C271.217 196.177 271.815 196.121 272.423 196.121C273.025 196.121 273.628 196.177 274.221 196.288C274.814 196.396 275.392 196.559 275.951 196.778C276.515 196.993 277.045 197.258 277.55 197.576C278.051 197.888 278.518 198.247 278.95 198.643C279.378 199.045 279.757 199.483 280.097 199.949C280.432 200.42 280.714 200.919 280.948 201.441C281.181 201.964 281.356 202.505 281.473 203.06C281.594 203.615 281.652 204.174 281.652 204.738Z" fill="#EF0753"/>
<path d="M498.945 430.084C498.945 430.537 498.897 430.98 498.804 431.423C498.707 431.861 498.566 432.29 498.381 432.705C498.197 433.12 497.973 433.516 497.706 433.89C497.439 434.263 497.132 434.608 496.792 434.929C496.452 435.247 496.078 435.531 495.679 435.778C495.276 436.03 494.853 436.24 494.406 436.412C493.959 436.585 493.502 436.716 493.03 436.799C492.554 436.888 492.078 436.935 491.596 436.935C491.11 436.935 490.634 436.888 490.163 436.799C489.686 436.716 489.23 436.585 488.782 436.412C488.335 436.24 487.912 436.03 487.514 435.778C487.11 435.531 486.741 435.247 486.401 434.929C486.056 434.608 485.754 434.263 485.487 433.89C485.215 433.516 484.991 433.12 484.807 432.705C484.622 432.29 484.481 431.861 484.389 431.423C484.291 430.98 484.248 430.537 484.248 430.084C484.248 429.637 484.291 429.194 484.389 428.751C484.481 428.312 484.622 427.883 484.807 427.468C484.991 427.053 485.215 426.657 485.487 426.284C485.754 425.911 486.056 425.566 486.401 425.244C486.741 424.927 487.11 424.642 487.514 424.395C487.912 424.143 488.335 423.933 488.782 423.761C489.23 423.588 489.686 423.458 490.163 423.374C490.634 423.285 491.11 423.239 491.596 423.239C492.078 423.239 492.554 423.285 493.03 423.374C493.502 423.458 493.959 423.588 494.406 423.761C494.853 423.933 495.276 424.143 495.679 424.395C496.078 424.642 496.452 424.927 496.792 425.244C497.132 425.566 497.439 425.911 497.706 426.284C497.973 426.657 498.197 427.053 498.381 427.468C498.566 427.883 498.707 428.312 498.804 428.751C498.897 429.194 498.945 429.637 498.945 430.084Z" fill="#EF0753"/>
<path d="M549.103 367.516C549.103 367.964 549.055 368.412 548.962 368.85C548.87 369.293 548.729 369.722 548.544 370.137C548.36 370.552 548.131 370.944 547.864 371.322C547.596 371.695 547.29 372.04 546.95 372.357C546.61 372.674 546.24 372.958 545.837 373.21C545.439 373.457 545.011 373.667 544.569 373.84C544.121 374.012 543.66 374.143 543.188 374.232C542.717 374.32 542.236 374.362 541.754 374.362C541.273 374.362 540.797 374.32 540.321 374.232C539.849 374.143 539.387 374.012 538.945 373.84C538.498 373.667 538.075 373.457 537.672 373.21C537.273 372.958 536.899 372.674 536.559 372.357C536.219 372.04 535.912 371.695 535.645 371.322C535.378 370.944 535.149 370.552 534.965 370.137C534.78 369.722 534.644 369.293 534.547 368.85C534.454 368.412 534.406 367.964 534.406 367.516C534.406 367.069 534.454 366.621 534.547 366.183C534.644 365.74 534.78 365.311 534.965 364.896C535.149 364.481 535.378 364.084 535.645 363.711C535.912 363.338 536.219 362.993 536.559 362.676C536.899 362.359 537.273 362.074 537.672 361.822C538.075 361.575 538.498 361.365 538.945 361.193C539.387 361.02 539.849 360.89 540.321 360.801C540.797 360.713 541.273 360.671 541.754 360.671C542.236 360.671 542.717 360.713 543.188 360.801C543.66 360.89 544.121 361.02 544.569 361.193C545.011 361.365 545.439 361.575 545.837 361.822C546.24 362.074 546.61 362.359 546.95 362.676C547.29 362.993 547.596 363.338 547.864 363.711C548.131 364.084 548.36 364.481 548.544 364.896C548.729 365.311 548.87 365.74 548.962 366.183C549.055 366.621 549.103 367.069 549.103 367.516Z" fill="#EF0753"/>
<path d="M567.602 515.544C567.602 515.996 567.553 516.439 567.456 516.882C567.364 517.321 567.223 517.75 567.038 518.165C566.853 518.58 566.63 518.976 566.362 519.349C566.095 519.722 565.789 520.068 565.449 520.385C565.104 520.702 564.734 520.986 564.336 521.238C563.932 521.485 563.509 521.7 563.062 521.872C562.615 522.04 562.158 522.171 561.687 522.259C561.21 522.348 560.734 522.39 560.253 522.39C559.767 522.39 559.291 522.348 558.819 522.259C558.343 522.171 557.886 522.04 557.439 521.872C556.992 521.7 556.569 521.485 556.17 521.238C555.767 520.986 555.398 520.702 555.052 520.385C554.712 520.068 554.411 519.722 554.139 519.349C553.871 518.976 553.648 518.58 553.463 518.165C553.278 517.75 553.138 517.321 553.045 516.882C552.948 516.439 552.904 515.996 552.904 515.544C552.904 515.096 552.948 514.649 553.045 514.21C553.138 513.767 553.278 513.338 553.463 512.923C553.648 512.508 553.871 512.117 554.139 511.744C554.411 511.366 554.712 511.021 555.052 510.704C555.398 510.386 555.767 510.102 556.17 509.85C556.569 509.603 556.992 509.393 557.439 509.221C557.886 509.048 558.343 508.918 558.819 508.829C559.291 508.745 559.767 508.698 560.253 508.698C560.734 508.698 561.21 508.745 561.687 508.829C562.158 508.918 562.615 509.048 563.062 509.221C563.509 509.393 563.932 509.603 564.336 509.85C564.734 510.102 565.104 510.386 565.449 510.704C565.789 511.021 566.095 511.366 566.362 511.744C566.63 512.117 566.853 512.508 567.038 512.923C567.223 513.338 567.364 513.767 567.456 514.21C567.553 514.649 567.602 515.096 567.602 515.544Z" fill="#EF0753"/>
<path d="M589.856 491.976C589.856 492.423 589.808 492.871 589.715 493.309C589.623 493.752 589.482 494.181 589.297 494.596C589.113 495.011 588.884 495.403 588.617 495.776C588.35 496.154 588.043 496.499 587.703 496.816C587.363 497.133 586.994 497.418 586.59 497.665C586.192 497.917 585.764 498.127 585.322 498.299C584.875 498.472 584.413 498.602 583.941 498.691C583.47 498.779 582.989 498.821 582.508 498.821C582.026 498.821 581.55 498.779 581.074 498.691C580.602 498.602 580.141 498.472 579.698 498.299C579.251 498.127 578.828 497.917 578.425 497.67C578.026 497.418 577.652 497.133 577.312 496.816C576.972 496.499 576.666 496.154 576.398 495.776C576.131 495.403 575.902 495.011 575.718 494.596C575.533 494.181 575.397 493.752 575.3 493.309C575.207 492.871 575.159 492.423 575.159 491.976C575.159 491.523 575.207 491.08 575.3 490.637C575.397 490.199 575.533 489.77 575.718 489.355C575.902 488.94 576.131 488.543 576.398 488.17C576.666 487.797 576.972 487.452 577.312 487.135C577.652 486.818 578.026 486.534 578.425 486.282C578.828 486.035 579.251 485.82 579.698 485.648C580.141 485.48 580.602 485.349 581.074 485.26C581.55 485.172 582.026 485.13 582.508 485.13C582.989 485.13 583.47 485.172 583.941 485.26C584.413 485.349 584.875 485.48 585.322 485.648C585.764 485.82 586.192 486.035 586.59 486.282C586.994 486.534 587.363 486.818 587.703 487.135C588.043 487.452 588.35 487.797 588.617 488.17C588.884 488.543 589.113 488.94 589.297 489.355C589.482 489.77 589.623 490.199 589.715 490.637C589.808 491.08 589.856 491.523 589.856 491.976Z" fill="#EF0753"/>
<path d="M630.965 482.132C630.965 482.579 630.916 483.027 630.824 483.465C630.731 483.908 630.59 484.337 630.406 484.752C630.221 485.167 629.993 485.559 629.725 485.937C629.458 486.31 629.152 486.655 628.812 486.972C628.471 487.289 628.102 487.574 627.699 487.826C627.3 488.073 626.872 488.283 626.43 488.455C625.983 488.628 625.526 488.758 625.05 488.847C624.578 488.935 624.097 488.977 623.616 488.977C623.135 488.977 622.658 488.935 622.182 488.847C621.711 488.758 621.249 488.628 620.807 488.455C620.36 488.283 619.937 488.073 619.533 487.826C619.135 487.574 618.761 487.289 618.42 486.972C618.08 486.655 617.774 486.31 617.507 485.937C617.239 485.559 617.011 485.167 616.826 484.752C616.641 484.337 616.505 483.908 616.408 483.465C616.316 483.027 616.267 482.579 616.267 482.132C616.267 481.684 616.316 481.236 616.408 480.798C616.505 480.355 616.641 479.926 616.826 479.511C617.011 479.096 617.239 478.699 617.507 478.326C617.774 477.953 618.08 477.608 618.42 477.291C618.761 476.974 619.135 476.69 619.533 476.438C619.937 476.191 620.36 475.976 620.807 475.808C621.249 475.636 621.711 475.505 622.182 475.416C622.658 475.328 623.135 475.286 623.616 475.286C624.097 475.286 624.578 475.328 625.05 475.416C625.526 475.505 625.983 475.636 626.43 475.808C626.872 475.976 627.3 476.191 627.699 476.438C628.102 476.69 628.471 476.974 628.812 477.291C629.152 477.608 629.458 477.953 629.725 478.326C629.993 478.699 630.221 479.096 630.406 479.511C630.59 479.926 630.731 480.355 630.824 480.798C630.916 481.236 630.965 481.684 630.965 482.132Z" fill="#EF0753"/>
<path d="M716.981 429.03C716.981 429.478 716.933 429.926 716.84 430.364C716.743 430.807 716.607 431.236 716.423 431.651C716.238 432.066 716.009 432.462 715.742 432.835C715.475 433.209 715.169 433.554 714.828 433.871C714.488 434.188 714.114 434.472 713.715 434.724C713.312 434.971 712.889 435.181 712.442 435.354C712 435.526 711.538 435.657 711.066 435.745C710.59 435.834 710.114 435.876 709.633 435.876C709.152 435.876 708.67 435.834 708.199 435.745C707.723 435.657 707.266 435.526 706.819 435.354C706.376 435.181 705.949 434.971 705.55 434.724C705.147 434.472 704.777 434.188 704.437 433.871C704.097 433.554 703.791 433.209 703.523 432.835C703.256 432.462 703.028 432.066 702.843 431.651C702.658 431.236 702.517 430.807 702.425 430.364C702.333 429.926 702.284 429.478 702.284 429.03C702.284 428.583 702.333 428.135 702.425 427.696C702.517 427.253 702.658 426.824 702.843 426.409C703.028 425.994 703.256 425.603 703.523 425.225C703.791 424.852 704.097 424.507 704.437 424.19C704.777 423.873 705.147 423.588 705.55 423.336C705.949 423.089 706.376 422.879 706.819 422.707C707.266 422.534 707.723 422.404 708.199 422.315C708.67 422.226 709.152 422.184 709.633 422.184C710.114 422.184 710.59 422.226 711.066 422.315C711.538 422.404 712 422.534 712.442 422.707C712.889 422.879 713.312 423.089 713.715 423.336C714.114 423.588 714.488 423.873 714.828 424.19C715.169 424.507 715.475 424.852 715.742 425.225C716.009 425.603 716.238 425.994 716.423 426.409C716.607 426.824 716.743 427.253 716.84 427.696C716.933 428.135 716.981 428.583 716.981 429.03Z" fill="#EF0753"/>
<path d="M922.202 470.515C922.202 470.967 922.153 471.41 922.061 471.853C921.969 472.292 921.828 472.721 921.643 473.136C921.458 473.551 921.235 473.947 920.963 474.32C920.695 474.693 920.394 475.038 920.049 475.356C919.709 475.677 919.339 475.957 918.936 476.209C918.537 476.461 918.114 476.671 917.667 476.843C917.22 477.016 916.763 477.142 916.287 477.23C915.816 477.319 915.339 477.361 914.853 477.361C914.372 477.361 913.896 477.319 913.419 477.23C912.948 477.142 912.486 477.016 912.044 476.843C911.597 476.671 911.174 476.461 910.771 476.209C910.372 475.957 909.998 475.677 909.658 475.356C909.317 475.038 909.011 474.693 908.744 474.32C908.477 473.947 908.248 473.551 908.063 473.136C907.879 472.721 907.743 472.292 907.645 471.853C907.553 471.41 907.504 470.967 907.504 470.515C907.504 470.067 907.553 469.62 907.645 469.181C907.743 468.738 907.879 468.314 908.063 467.894C908.248 467.479 908.477 467.088 908.744 466.714C909.011 466.337 909.317 465.992 909.658 465.675C909.998 465.357 910.372 465.073 910.771 464.826C911.174 464.574 911.597 464.364 912.044 464.192C912.486 464.019 912.948 463.888 913.419 463.8C913.896 463.716 914.372 463.669 914.853 463.669C915.339 463.669 915.816 463.716 916.287 463.8C916.763 463.888 917.22 464.019 917.667 464.192C918.114 464.364 918.537 464.574 918.936 464.826C919.339 465.073 919.709 465.357 920.049 465.675C920.394 465.992 920.695 466.337 920.963 466.714C921.235 467.088 921.458 467.479 921.643 467.894C921.828 468.314 921.969 468.738 922.061 469.181C922.158 469.62 922.202 470.067 922.202 470.515Z" fill="#EF0753"/>
<path d="M627.203 368.911C627.203 369.363 627.154 369.806 627.062 370.249C626.965 370.687 626.829 371.116 626.644 371.531C626.459 371.946 626.231 372.343 625.964 372.716C625.696 373.089 625.39 373.434 625.05 373.756C624.71 374.073 624.335 374.357 623.937 374.604C623.533 374.856 623.111 375.066 622.668 375.239C622.221 375.411 621.759 375.542 621.288 375.626C620.816 375.714 620.335 375.761 619.854 375.761C619.373 375.761 618.892 375.714 618.42 375.626C617.949 375.542 617.487 375.411 617.04 375.239C616.598 375.066 616.175 374.856 615.772 374.604C615.368 374.357 614.999 374.073 614.659 373.756C614.318 373.434 614.012 373.089 613.745 372.716C613.477 372.343 613.249 371.946 613.064 371.531C612.88 371.116 612.739 370.687 612.646 370.249C612.554 369.806 612.505 369.363 612.505 368.911C612.505 368.463 612.554 368.02 612.646 367.577C612.739 367.134 612.88 366.709 613.064 366.294C613.249 365.879 613.477 365.483 613.745 365.11C614.012 364.737 614.318 364.387 614.659 364.07C614.999 363.753 615.368 363.468 615.772 363.221C616.175 362.97 616.598 362.76 617.04 362.587C617.487 362.415 617.949 362.284 618.42 362.2C618.892 362.111 619.373 362.065 619.854 362.065C620.335 362.065 620.816 362.111 621.288 362.2C621.759 362.284 622.221 362.415 622.668 362.587C623.111 362.76 623.533 362.97 623.937 363.221C624.335 363.468 624.71 363.753 625.05 364.07C625.39 364.387 625.696 364.737 625.964 365.11C626.231 365.483 626.459 365.879 626.644 366.294C626.829 366.709 626.965 367.134 627.062 367.577C627.154 368.02 627.203 368.463 627.203 368.911Z" fill="#EF0753"/>
<path d="M885.21 397.049C885.21 397.497 885.166 397.94 885.069 398.383C884.976 398.826 884.835 399.25 884.651 399.665C884.466 400.08 884.242 400.477 883.975 400.85C883.703 401.223 883.402 401.568 883.061 401.89C882.716 402.207 882.347 402.491 881.944 402.738C881.545 402.99 881.122 403.2 880.675 403.373C880.228 403.545 879.771 403.676 879.295 403.76C878.823 403.848 878.347 403.895 877.866 403.895C877.38 403.895 876.903 403.848 876.432 403.76C875.956 403.676 875.499 403.545 875.052 403.373C874.605 403.2 874.182 402.99 873.783 402.738C873.38 402.491 873.01 402.207 872.665 401.89C872.325 401.568 872.024 401.223 871.752 400.85C871.484 400.477 871.261 400.08 871.076 399.665C870.891 399.25 870.75 398.826 870.658 398.383C870.561 397.94 870.517 397.497 870.517 397.049C870.517 396.597 870.561 396.154 870.658 395.711C870.75 395.272 870.891 394.843 871.076 394.428C871.261 394.013 871.484 393.617 871.752 393.244C872.024 392.871 872.325 392.526 872.665 392.204C873.01 391.887 873.38 391.602 873.783 391.355C874.182 391.103 874.605 390.894 875.052 390.721C875.499 390.548 875.956 390.418 876.432 390.334C876.903 390.245 877.38 390.199 877.866 390.199C878.347 390.199 878.823 390.245 879.295 390.334C879.771 390.418 880.228 390.548 880.675 390.721C881.122 390.894 881.545 391.103 881.944 391.355C882.347 391.602 882.716 391.887 883.061 392.204C883.402 392.526 883.703 392.871 883.975 393.244C884.242 393.617 884.466 394.013 884.651 394.428C884.835 394.843 884.976 395.272 885.069 395.711C885.166 396.154 885.21 396.597 885.21 397.049Z" fill="#EF0753"/>
<path d="M717.726 280.489C717.726 280.858 717.687 281.226 717.609 281.585C717.531 281.949 717.419 282.299 717.269 282.639C717.113 282.984 716.928 283.306 716.71 283.614C716.491 283.922 716.238 284.201 715.956 284.463C715.679 284.724 715.373 284.957 715.043 285.162C714.712 285.367 714.367 285.54 714.003 285.684C713.633 285.824 713.259 285.932 712.87 286.001C712.481 286.076 712.088 286.109 711.689 286.109C711.295 286.109 710.902 286.076 710.513 286.001C710.124 285.932 709.75 285.824 709.38 285.684C709.016 285.54 708.666 285.367 708.34 285.162C708.01 284.957 707.704 284.724 707.422 284.463C707.145 284.201 706.892 283.922 706.673 283.614C706.455 283.306 706.265 282.984 706.114 282.639C705.964 282.299 705.852 281.949 705.774 281.585C705.696 281.226 705.657 280.858 705.657 280.489C705.657 280.121 705.696 279.757 705.774 279.394C705.852 279.034 705.964 278.68 706.114 278.34C706.265 277.999 706.455 277.673 706.673 277.37C706.892 277.062 707.145 276.777 707.422 276.516C707.704 276.255 708.01 276.022 708.34 275.817C708.666 275.612 709.016 275.439 709.38 275.299C709.75 275.159 710.124 275.052 710.513 274.977C710.902 274.907 711.295 274.87 711.689 274.87C712.088 274.87 712.481 274.907 712.87 274.977C713.259 275.052 713.633 275.159 714.003 275.299C714.367 275.439 714.712 275.612 715.043 275.817C715.373 276.022 715.679 276.255 715.956 276.516C716.238 276.777 716.491 277.062 716.71 277.37C716.928 277.673 717.113 277.999 717.269 278.34C717.419 278.68 717.531 279.034 717.609 279.394C717.687 279.757 717.726 280.121 717.726 280.489Z" fill="#EF0753"/>
<path d="M671.718 301.95C671.718 302.319 671.679 302.682 671.601 303.046C671.524 303.405 671.412 303.759 671.261 304.1C671.106 304.44 670.921 304.767 670.702 305.07C670.483 305.378 670.231 305.662 669.949 305.923C669.672 306.184 669.366 306.418 669.035 306.623C668.71 306.828 668.36 307 667.995 307.14C667.626 307.28 667.251 307.388 666.863 307.462C666.474 307.532 666.08 307.569 665.682 307.569C665.288 307.569 664.894 307.532 664.505 307.462C664.117 307.388 663.742 307.28 663.373 307.14C663.008 307 662.658 306.828 662.333 306.623C662.002 306.418 661.696 306.184 661.414 305.923C661.137 305.662 660.884 305.378 660.666 305.07C660.447 304.767 660.257 304.44 660.107 304.1C659.956 303.759 659.844 303.405 659.767 303.046C659.689 302.682 659.65 302.319 659.65 301.95C659.65 301.582 659.689 301.213 659.767 300.854C659.844 300.49 659.956 300.141 660.107 299.8C660.257 299.455 660.447 299.133 660.666 298.826C660.884 298.518 661.137 298.238 661.414 297.977C661.696 297.716 662.002 297.483 662.333 297.277C662.658 297.072 663.008 296.9 663.373 296.755C663.742 296.615 664.117 296.508 664.505 296.438C664.894 296.363 665.288 296.331 665.682 296.331C666.08 296.331 666.474 296.363 666.863 296.438C667.251 296.508 667.626 296.615 667.995 296.755C668.36 296.9 668.71 297.072 669.035 297.277C669.366 297.483 669.672 297.716 669.949 297.977C670.231 298.238 670.483 298.518 670.702 298.826C670.921 299.133 671.106 299.455 671.261 299.8C671.412 300.141 671.524 300.49 671.601 300.854C671.679 301.213 671.718 301.582 671.718 301.95Z" fill="#EF0753"/>
<path d="M553.647 303.004C553.647 303.372 553.609 303.741 553.531 304.1C553.453 304.464 553.341 304.813 553.191 305.154C553.035 305.499 552.85 305.821 552.632 306.128C552.408 306.436 552.16 306.716 551.878 306.977C551.601 307.238 551.295 307.471 550.965 307.677C550.634 307.882 550.289 308.054 549.924 308.199C549.555 308.339 549.181 308.446 548.792 308.516C548.403 308.591 548.009 308.623 547.611 308.623C547.217 308.623 546.824 308.591 546.435 308.516C546.046 308.446 545.667 308.339 545.302 308.199C544.938 308.054 544.588 307.882 544.257 307.677C543.932 307.471 543.626 307.238 543.344 306.977C543.067 306.716 542.814 306.436 542.595 306.128C542.376 305.821 542.187 305.499 542.036 305.154C541.886 304.813 541.769 304.464 541.696 304.1C541.618 303.741 541.579 303.372 541.579 303.004C541.579 302.636 541.618 302.272 541.696 301.908C541.769 301.544 541.886 301.195 542.036 300.854C542.187 300.514 542.376 300.187 542.595 299.884C542.814 299.576 543.067 299.292 543.344 299.031C543.626 298.77 543.932 298.536 544.257 298.331C544.588 298.126 544.938 297.954 545.302 297.814C545.667 297.674 546.046 297.567 546.435 297.492C546.824 297.422 547.217 297.385 547.611 297.385C548.009 297.385 548.403 297.422 548.792 297.492C549.181 297.567 549.555 297.674 549.924 297.814C550.289 297.954 550.634 298.126 550.965 298.331C551.295 298.536 551.601 298.77 551.878 299.031C552.16 299.292 552.408 299.576 552.632 299.884C552.85 300.187 553.035 300.514 553.191 300.854C553.341 301.195 553.453 301.544 553.531 301.908C553.609 302.272 553.647 302.636 553.647 303.004Z" fill="#EF0753"/>
<mask id="mask0_114_365" style="mask-type:luminance" maskUnits="userSpaceOnUse" x="991" y="339" width="17" height="16">
<path d="M991.401 339.187H1007.33V354.706H991.401V339.187Z" fill="white"/>
</mask>
<g mask="url(#mask0_114_365)">
<path d="M1006.69 347.114C1006.69 347.562 1006.64 348.01 1006.55 348.448C1006.45 348.891 1006.32 349.32 1006.13 349.735C1005.95 350.15 1005.72 350.542 1005.45 350.92C1005.19 351.293 1004.88 351.638 1004.54 351.955C1004.2 352.272 1003.82 352.557 1003.43 352.808C1003.02 353.056 1002.6 353.265 1002.15 353.438C1001.71 353.61 1001.25 353.741 1000.78 353.83C1000.3 353.918 999.825 353.96 999.344 353.96C998.862 353.96 998.381 353.918 997.91 353.83C997.433 353.741 996.977 353.61 996.529 353.438C996.082 353.265 995.659 353.056 995.261 352.808C994.857 352.557 994.488 352.272 994.148 351.955C993.808 351.638 993.501 351.293 993.234 350.92C992.967 350.542 992.738 350.15 992.554 349.735C992.369 349.32 992.228 348.891 992.136 348.448C992.043 348.01 991.995 347.562 991.995 347.114C991.995 346.667 992.043 346.219 992.136 345.776C992.228 345.338 992.369 344.909 992.554 344.494C992.738 344.079 992.962 343.682 993.234 343.309C993.501 342.936 993.803 342.591 994.148 342.274C994.488 341.957 994.857 341.672 995.261 341.421C995.659 341.173 996.082 340.959 996.529 340.791C996.977 340.618 997.433 340.488 997.91 340.399C998.381 340.311 998.862 340.269 999.344 340.269C999.825 340.269 1000.3 340.311 1000.78 340.399C1001.25 340.488 1001.71 340.618 1002.15 340.791C1002.6 340.959 1003.02 341.173 1003.43 341.421C1003.82 341.672 1004.2 341.957 1004.54 342.274C1004.88 342.591 1005.19 342.936 1005.45 343.309C1005.72 343.682 1005.95 344.079 1006.13 344.494C1006.32 344.909 1006.45 345.338 1006.55 345.776C1006.64 346.219 1006.69 346.667 1006.69 347.114Z" fill="#EF0753"/>
</g>
<path d="M941.409 172.72C941.409 173.173 941.361 173.616 941.268 174.059C941.171 174.497 941.035 174.926 940.85 175.341C940.665 175.756 940.437 176.152 940.17 176.525C939.902 176.899 939.596 177.244 939.256 177.561C938.916 177.883 938.542 178.167 938.143 178.414C937.74 178.666 937.317 178.876 936.87 179.048C936.427 179.221 935.966 179.347 935.494 179.435C935.018 179.524 934.542 179.566 934.06 179.566C933.574 179.566 933.098 179.524 932.627 179.435C932.15 179.347 931.693 179.221 931.246 179.048C930.799 178.876 930.376 178.666 929.978 178.414C929.574 178.167 929.205 177.883 928.865 177.561C928.52 177.244 928.218 176.899 927.951 176.525C927.679 176.152 927.455 175.756 927.271 175.341C927.086 174.926 926.945 174.497 926.853 174.059C926.755 173.616 926.712 173.173 926.712 172.72C926.712 172.273 926.755 171.83 926.853 171.386C926.945 170.943 927.086 170.519 927.271 170.104C927.455 169.684 927.679 169.293 927.951 168.92C928.218 168.547 928.52 168.197 928.865 167.88C929.205 167.563 929.574 167.278 929.978 167.031C930.376 166.779 930.799 166.569 931.246 166.397C931.693 166.224 932.15 166.094 932.627 166.005C933.098 165.921 933.574 165.874 934.06 165.874C934.542 165.874 935.018 165.921 935.494 166.005C935.966 166.094 936.427 166.224 936.87 166.397C937.317 166.569 937.74 166.779 938.143 167.031C938.542 167.278 938.916 167.563 939.256 167.88C939.596 168.197 939.902 168.547 940.17 168.92C940.437 169.293 940.665 169.684 940.85 170.104C941.035 170.519 941.171 170.943 941.268 171.386C941.361 171.83 941.409 172.273 941.409 172.72Z" fill="#EF0753"/>
<path d="M896.928 96.4235C896.928 96.8759 896.88 97.3189 896.787 97.7619C896.69 98.2002 896.554 98.6293 896.369 99.0443C896.185 99.4593 895.956 99.8557 895.689 100.229C895.421 100.602 895.115 100.947 894.775 101.269C894.435 101.586 894.061 101.87 893.662 102.117C893.259 102.369 892.836 102.579 892.389 102.752C891.946 102.924 891.485 103.055 891.013 103.139C890.537 103.227 890.061 103.274 889.579 103.274C889.098 103.274 888.617 103.227 888.146 103.139C887.669 103.055 887.212 102.924 886.765 102.752C886.318 102.579 885.895 102.369 885.497 102.117C885.093 101.87 884.724 101.586 884.384 101.269C884.044 100.947 883.737 100.602 883.47 100.229C883.203 99.8557 882.974 99.4593 882.79 99.0443C882.605 98.6293 882.464 98.2002 882.372 97.7619C882.279 97.3189 882.231 96.8759 882.231 96.4235C882.231 95.9758 882.279 95.5328 882.372 95.0898C882.464 94.6468 882.605 94.2224 882.79 93.8074C882.974 93.3924 883.203 92.996 883.47 92.6229C883.737 92.2498 884.044 91.9001 884.384 91.583C884.724 91.2659 885.093 90.9814 885.497 90.7343C885.895 90.4824 886.318 90.2726 886.765 90.1001C887.212 89.9275 887.669 89.7969 888.146 89.713C888.617 89.6244 889.098 89.5778 889.579 89.5778C890.061 89.5778 890.537 89.6244 891.013 89.713C891.485 89.7969 891.946 89.9275 892.389 90.1001C892.836 90.2726 893.259 90.4824 893.662 90.7343C894.061 90.9814 894.435 91.2659 894.775 91.583C895.115 91.9001 895.421 92.2498 895.689 92.6229C895.956 92.996 896.185 93.3924 896.369 93.8074C896.554 94.2224 896.69 94.6468 896.787 95.0898C896.88 95.5328 896.928 95.9758 896.928 96.4235Z" fill="#EF0753"/>
<path d="M891.635 33.8556C891.635 34.3033 891.591 34.7509 891.494 35.1893C891.401 35.6323 891.26 36.0613 891.076 36.4764C890.891 36.8914 890.667 37.2831 890.4 37.6609C890.128 38.0339 889.827 38.379 889.486 38.6961C889.141 39.0132 888.772 39.2977 888.369 39.5495C887.97 39.7967 887.547 40.0065 887.1 40.179C886.653 40.3516 886.196 40.4822 885.72 40.5708C885.248 40.6594 884.772 40.7013 884.291 40.7013C883.805 40.7013 883.328 40.6594 882.857 40.5708C882.381 40.4822 881.924 40.3516 881.477 40.179C881.03 40.0065 880.607 39.7967 880.208 39.5495C879.805 39.2977 879.435 39.0132 879.09 38.6961C878.75 38.379 878.449 38.0339 878.177 37.6609C877.909 37.2831 877.686 36.8914 877.501 36.4764C877.316 36.0613 877.175 35.6323 877.083 35.1893C876.986 34.7509 876.942 34.3033 876.942 33.8556C876.942 33.4079 876.986 32.9602 877.083 32.5219C877.175 32.0789 877.316 31.6498 877.501 31.2348C877.686 30.8198 877.909 30.4234 878.177 30.0503C878.449 29.6772 878.75 29.3322 879.09 29.0151C879.435 28.6979 879.805 28.4135 880.208 28.1617C880.607 27.9145 881.03 27.7 881.477 27.5321C881.924 27.3596 882.381 27.229 882.857 27.1404C883.328 27.0518 883.805 27.0098 884.291 27.0098C884.772 27.0098 885.248 27.0518 885.725 27.1404C886.196 27.229 886.653 27.3596 887.1 27.5321C887.547 27.7 887.97 27.9145 888.369 28.1617C888.772 28.4135 889.141 28.6979 889.486 29.0151C889.827 29.3322 890.128 29.6772 890.4 30.0503C890.667 30.4234 890.891 30.8198 891.076 31.2348C891.26 31.6498 891.401 32.0789 891.494 32.5219C891.591 32.9602 891.635 33.4079 891.635 33.8556Z" fill="#EF0753"/>
<path d="M775.446 92.2032C775.446 92.6509 775.402 93.0986 775.305 93.5369C775.213 93.98 775.072 94.4043 774.887 94.824C774.702 95.2391 774.479 95.6308 774.212 96.0038C773.939 96.3769 773.638 96.7267 773.298 97.0438C772.953 97.3609 772.583 97.6453 772.18 97.8925C771.781 98.1443 771.359 98.3542 770.911 98.5267C770.464 98.6992 770.007 98.8298 769.531 98.9184C769.06 99.0024 768.583 99.049 768.102 99.049C767.616 99.049 767.14 99.0024 766.668 98.9184C766.192 98.8298 765.735 98.6992 765.288 98.5267C764.841 98.3542 764.418 98.1443 764.02 97.8925C763.616 97.6453 763.247 97.3609 762.902 97.0438C762.561 96.7267 762.26 96.3769 761.988 96.0038C761.721 95.6308 761.497 95.2391 761.312 94.824C761.128 94.4043 760.987 93.98 760.894 93.5369C760.797 93.0986 760.753 92.6509 760.753 92.2032C760.753 91.7509 760.797 91.3079 760.894 90.8649C760.987 90.4265 761.128 89.9975 761.312 89.5825C761.497 89.1674 761.721 88.771 761.988 88.398C762.26 88.0249 762.561 87.6798 762.902 87.3627C763.247 87.0409 763.616 86.7611 764.02 86.5093C764.418 86.2575 764.841 86.0477 765.288 85.8751C765.735 85.7026 766.192 85.5767 766.668 85.4881C767.14 85.3995 767.616 85.3575 768.102 85.3575C768.583 85.3575 769.06 85.3995 769.531 85.4881C770.007 85.5767 770.464 85.7026 770.911 85.8751C771.359 86.0477 771.781 86.2575 772.18 86.5093C772.583 86.7611 772.953 87.0409 773.298 87.3627C773.638 87.6798 773.939 88.0249 774.212 88.398C774.479 88.771 774.702 89.1674 774.887 89.5825C775.072 89.9975 775.213 90.4265 775.305 90.8649C775.402 91.3079 775.446 91.7509 775.446 92.2032Z" fill="#EF0753"/>
<path d="M700.009 111.206C700.009 111.659 699.966 112.102 699.869 112.545C699.776 112.983 699.635 113.412 699.451 113.827C699.266 114.242 699.042 114.638 698.775 115.011C698.503 115.385 698.201 115.73 697.861 116.047C697.516 116.368 697.147 116.648 696.743 116.9C696.345 117.152 695.922 117.362 695.475 117.534C695.028 117.707 694.571 117.833 694.095 117.921C693.623 118.01 693.147 118.052 692.666 118.052C692.18 118.052 691.703 118.01 691.232 117.921C690.756 117.833 690.299 117.707 689.852 117.534C689.404 117.362 688.982 117.152 688.583 116.9C688.18 116.648 687.81 116.368 687.465 116.047C687.125 115.73 686.824 115.385 686.551 115.011C686.284 114.638 686.061 114.242 685.876 113.827C685.691 113.412 685.55 112.983 685.458 112.545C685.361 112.102 685.317 111.659 685.317 111.206C685.317 110.759 685.361 110.311 685.458 109.872C685.55 109.429 685.691 109.005 685.876 108.59C686.061 108.17 686.284 107.779 686.551 107.406C686.824 107.033 687.125 106.683 687.465 106.366C687.81 106.049 688.18 105.764 688.583 105.517C688.982 105.265 689.404 105.055 689.852 104.883C690.299 104.71 690.756 104.58 691.232 104.491C691.703 104.407 692.18 104.36 692.666 104.36C693.147 104.36 693.623 104.407 694.095 104.491C694.571 104.58 695.028 104.71 695.475 104.883C695.922 105.055 696.345 105.265 696.743 105.517C697.147 105.764 697.516 106.049 697.861 106.366C698.201 106.683 698.503 107.033 698.775 107.406C699.042 107.779 699.266 108.17 699.451 108.59C699.635 109.005 699.776 109.429 699.869 109.872C699.966 110.311 700.009 110.759 700.009 111.206Z" fill="#EF0753"/>
<path d="M630.575 105.927C630.575 106.38 630.527 106.823 630.435 107.266C630.337 107.704 630.201 108.133 630.017 108.548C629.832 108.963 629.603 109.36 629.336 109.733C629.069 110.106 628.763 110.451 628.422 110.768C628.082 111.085 627.708 111.369 627.309 111.621C626.906 111.868 626.483 112.083 626.036 112.256C625.594 112.423 625.132 112.554 624.661 112.643C624.184 112.731 623.708 112.773 623.227 112.773C622.746 112.773 622.264 112.731 621.793 112.643C621.322 112.554 620.86 112.423 620.413 112.256C619.97 112.083 619.543 111.868 619.144 111.621C618.741 111.369 618.371 111.085 618.031 110.768C617.691 110.451 617.385 110.106 617.117 109.733C616.85 109.36 616.622 108.963 616.437 108.548C616.252 108.133 616.111 107.704 616.019 107.266C615.927 106.823 615.878 106.38 615.878 105.927C615.878 105.48 615.927 105.032 616.019 104.594C616.111 104.151 616.252 103.722 616.437 103.307C616.622 102.892 616.85 102.5 617.117 102.127C617.385 101.749 617.691 101.404 618.031 101.087C618.371 100.77 618.741 100.485 619.144 100.238C619.543 99.9863 619.97 99.7765 620.413 99.6039C620.86 99.4314 621.322 99.3008 621.793 99.2122C622.264 99.1283 622.746 99.0816 623.227 99.0816C623.708 99.0816 624.184 99.1283 624.661 99.2122C625.132 99.3008 625.594 99.4314 626.036 99.6039C626.483 99.7765 626.906 99.9863 627.309 100.238C627.708 100.485 628.082 100.77 628.422 101.087C628.763 101.404 629.069 101.749 629.336 102.127C629.603 102.5 629.832 102.892 630.017 103.307C630.201 103.722 630.337 104.151 630.435 104.594C630.527 105.032 630.575 105.48 630.575 105.927Z" fill="#EF0753"/>
<path d="M742.61 17.6786C742.61 18.1263 742.566 18.5693 742.469 19.0123C742.377 19.4553 742.236 19.8797 742.051 20.2947C741.866 20.7098 741.643 21.1062 741.371 21.4792C741.103 21.8523 740.802 22.1974 740.457 22.5191C740.117 22.8363 739.747 23.1207 739.344 23.3679C738.945 23.6197 738.522 23.8295 738.075 24.0021C737.628 24.1746 737.171 24.3052 736.695 24.3891C736.224 24.4777 735.747 24.5244 735.261 24.5244C734.78 24.5244 734.304 24.4777 733.827 24.3891C733.356 24.3052 732.894 24.1746 732.452 24.0021C732.005 23.8295 731.582 23.6197 731.179 23.3679C730.78 23.1207 730.406 22.8363 730.066 22.5191C729.725 22.1974 729.419 21.8523 729.152 21.4792C728.885 21.1062 728.656 20.7098 728.471 20.2947C728.287 19.8797 728.151 19.4553 728.053 19.0123C727.961 18.5693 727.912 18.1263 727.912 17.6786C727.912 17.2263 727.961 16.7833 728.053 16.3402C728.151 15.9019 728.287 15.4729 728.471 15.0578C728.656 14.6428 728.885 14.2464 729.152 13.8734C729.419 13.5003 729.725 13.1552 730.066 12.8334C730.406 12.5163 730.78 12.2319 731.179 11.9847C731.582 11.7329 732.005 11.523 732.452 11.3505C732.894 11.178 733.356 11.0474 733.827 10.9634C734.304 10.8748 734.78 10.8282 735.261 10.8282C735.747 10.8282 736.224 10.8748 736.695 10.9634C737.171 11.0474 737.628 11.178 738.075 11.3505C738.522 11.523 738.945 11.7329 739.344 11.9847C739.747 12.2319 740.117 12.5163 740.457 12.8334C740.802 13.1552 741.103 13.5003 741.371 13.8734C741.643 14.2464 741.866 14.6428 742.051 15.0578C742.236 15.4729 742.377 15.9019 742.469 16.3402C742.566 16.7833 742.61 17.2263 742.61 17.6786Z" fill="#EF0753"/>
<path d="M687.942 9.60642C687.942 10.0541 687.893 10.4971 687.801 10.9401C687.708 11.3785 687.567 11.8075 687.383 12.2225C687.198 12.6376 686.969 13.034 686.702 13.407C686.435 13.7801 686.129 14.1252 685.788 14.4469C685.448 14.764 685.079 15.0485 684.675 15.2957C684.277 15.5475 683.849 15.7573 683.407 15.9299C682.96 16.1024 682.498 16.233 682.027 16.3169C681.555 16.4055 681.074 16.4522 680.593 16.4522C680.112 16.4522 679.635 16.4055 679.159 16.3169C678.688 16.233 678.226 16.1024 677.784 15.9299C677.336 15.7573 676.914 15.5475 676.51 15.2957C676.112 15.0485 675.737 14.764 675.397 14.4469C675.057 14.1252 674.751 13.7801 674.483 13.407C674.216 13.034 673.988 12.6376 673.803 12.2225C673.618 11.8075 673.482 11.3785 673.385 10.9401C673.293 10.4971 673.244 10.0541 673.244 9.60642C673.244 9.15407 673.293 8.71106 673.385 8.26804C673.482 7.82969 673.618 7.40066 673.803 6.98563C673.988 6.57059 674.216 6.17421 674.483 5.80115C674.751 5.42808 675.057 5.08299 675.397 4.76122C675.737 4.44412 676.112 4.15966 676.51 3.9125C676.914 3.66068 677.336 3.45083 677.784 3.27829C678.226 3.10575 678.688 2.97517 679.159 2.89123C679.635 2.80263 680.112 2.756 680.593 2.756C681.074 2.756 681.555 2.80263 682.027 2.89123C682.498 2.97517 682.96 3.10575 683.407 3.27829C683.849 3.45083 684.277 3.66068 684.675 3.9125C685.079 4.15966 685.448 4.44412 685.788 4.76122C686.129 5.08299 686.435 5.42808 686.702 5.80115C686.969 6.17421 687.198 6.57059 687.383 6.98563C687.567 7.40066 687.708 7.82969 687.801 8.26804C687.893 8.71106 687.942 9.15407 687.942 9.60642Z" fill="#EF0753"/>
<mask id="mask1_114_365" style="mask-type:luminance" maskUnits="userSpaceOnUse" x="594" y="0" width="17" height="15">
<path d="M594.494 0H610.669V14.4703H594.494V0Z" fill="white"/>
</mask>
<g mask="url(#mask1_114_365)">
<path d="M610.236 6.77578C610.236 7.22812 610.187 7.67114 610.095 8.11415C609.998 8.55251 609.861 8.98153 609.677 9.39657C609.492 9.8116 609.264 10.208 608.996 10.581C608.729 10.9541 608.423 11.2992 608.083 11.6163C607.742 11.9381 607.368 12.2179 606.97 12.4697C606.566 12.7215 606.143 12.9314 605.696 13.1039C605.254 13.2764 604.792 13.4024 604.321 13.491C603.844 13.5796 603.368 13.6215 602.887 13.6215C602.401 13.6215 601.925 13.5796 601.453 13.491C600.977 13.4024 600.52 13.2764 600.073 13.1039C599.626 12.9314 599.203 12.7215 598.804 12.4697C598.401 12.2179 598.032 11.9381 597.691 11.6163C597.346 11.2992 597.045 10.9541 596.778 10.581C596.505 10.208 596.282 9.8116 596.097 9.39657C595.913 8.98153 595.772 8.55251 595.679 8.11415C595.582 7.67114 595.538 7.22812 595.538 6.77578C595.538 6.3281 595.582 5.88042 595.679 5.44207C595.772 4.99905 595.913 4.57003 596.097 4.15499C596.282 3.73996 596.505 3.34824 596.778 2.97517C597.045 2.59744 597.346 2.25236 597.691 1.93525C598.032 1.61815 598.401 1.33368 598.804 1.08653C599.203 0.834708 599.626 0.624859 600.073 0.452315C600.52 0.279773 600.977 0.149198 601.453 0.0605962C601.925 -0.0233442 602.401 -0.0699768 602.887 -0.0699768C603.368 -0.0699768 603.844 -0.0233442 604.321 0.0605962C604.792 0.149198 605.254 0.279773 605.696 0.452315C606.143 0.624859 606.566 0.834708 606.97 1.08653C607.368 1.33368 607.742 1.61815 608.083 1.93525C608.423 2.25236 608.729 2.59744 608.996 2.97517C609.264 3.34824 609.492 3.73996 609.677 4.15499C609.861 4.57003 609.998 4.99905 610.095 5.44207C610.187 5.88042 610.236 6.3281 610.236 6.77578Z" fill="#EF0753"/>
</g>
<path d="M509.487 13.4537C509.487 13.9014 509.439 14.3491 509.346 14.7874C509.249 15.2304 509.113 15.6595 508.928 16.0745C508.744 16.4895 508.515 16.8813 508.248 17.2543C507.981 17.632 507.674 17.9771 507.334 18.2942C506.994 18.6113 506.62 18.8958 506.221 19.1476C505.818 19.3948 505.395 19.6046 504.948 19.7772C504.506 19.9497 504.044 20.0803 503.572 20.1689C503.101 20.2575 502.62 20.2995 502.139 20.2995C501.657 20.2995 501.176 20.2575 500.705 20.1689C500.233 20.0803 499.772 19.9497 499.325 19.7772C498.882 19.6046 498.455 19.3948 498.056 19.1476C497.653 18.8958 497.283 18.6113 496.943 18.2942C496.603 17.9771 496.297 17.632 496.029 17.2543C495.762 16.8813 495.534 16.4895 495.349 16.0745C495.164 15.6595 495.023 15.2304 494.931 14.7874C494.839 14.3491 494.79 13.9014 494.79 13.4537C494.79 13.0014 494.839 12.5584 494.931 12.1153C495.023 11.677 495.164 11.248 495.349 10.8329C495.534 10.4179 495.762 10.0215 496.029 9.64844C496.297 9.27538 496.603 8.93029 496.943 8.61318C497.283 8.29608 497.653 8.01162 498.056 7.7598C498.455 7.51264 498.882 7.29813 499.325 7.12558C499.772 6.95771 500.233 6.82713 500.705 6.73853C501.176 6.64993 501.657 6.60796 502.139 6.60796C502.62 6.60796 503.101 6.64993 503.572 6.73853C504.044 6.82713 504.506 6.95771 504.948 7.13025C505.395 7.29813 505.818 7.51264 506.221 7.7598C506.62 8.01162 506.994 8.29608 507.334 8.61318C507.674 8.93029 507.981 9.27538 508.248 9.64844C508.515 10.0215 508.744 10.4179 508.928 10.8329C509.113 11.248 509.249 11.677 509.346 12.1153C509.439 12.5584 509.487 13.0014 509.487 13.4537Z" fill="#EF0753"/>
<path d="M797.317 135.801C797.317 136.248 797.268 136.696 797.176 137.134C797.079 137.577 796.943 138.006 796.758 138.421C796.573 138.836 796.345 139.228 796.077 139.601C795.81 139.979 795.504 140.324 795.164 140.641C794.824 140.958 794.449 141.243 794.051 141.495C793.647 141.742 793.224 141.952 792.777 142.124C792.335 142.297 791.873 142.427 791.402 142.516C790.926 142.604 790.449 142.646 789.968 142.646C789.482 142.646 789.006 142.604 788.534 142.516C788.058 142.427 787.601 142.297 787.154 142.124C786.707 141.952 786.284 141.742 785.885 141.495C785.482 141.243 785.113 140.958 784.772 140.641C784.427 140.324 784.126 139.979 783.859 139.601C783.587 139.228 783.363 138.836 783.178 138.421C782.994 138.006 782.853 137.577 782.76 137.134C782.668 136.696 782.619 136.248 782.619 135.801C782.619 135.348 782.668 134.905 782.76 134.462C782.853 134.024 782.994 133.595 783.178 133.18C783.363 132.765 783.587 132.368 783.859 131.995C784.126 131.622 784.427 131.277 784.772 130.96C785.113 130.643 785.482 130.358 785.885 130.107C786.284 129.86 786.707 129.645 787.154 129.472C787.601 129.305 788.058 129.174 788.534 129.085C789.006 128.997 789.482 128.955 789.968 128.955C790.449 128.955 790.926 128.997 791.402 129.085C791.873 129.174 792.335 129.305 792.777 129.472C793.224 129.645 793.647 129.86 794.051 130.107C794.449 130.358 794.824 130.643 795.164 130.96C795.504 131.277 795.81 131.622 796.077 131.995C796.345 132.368 796.573 132.765 796.758 133.18C796.943 133.595 797.079 134.024 797.176 134.462C797.268 134.905 797.317 135.348 797.317 135.801Z" fill="#EF0753"/>
<path d="M639.665 186.789C639.665 187.237 639.617 187.685 639.524 188.123C639.427 188.566 639.291 188.995 639.106 189.41C638.922 189.825 638.693 190.217 638.426 190.595C638.159 190.968 637.852 191.313 637.512 191.63C637.172 191.947 636.798 192.232 636.399 192.483C635.996 192.73 635.573 192.94 635.126 193.113C634.683 193.285 634.222 193.416 633.75 193.505C633.274 193.593 632.798 193.635 632.316 193.635C631.83 193.635 631.354 193.593 630.883 193.505C630.406 193.416 629.95 193.285 629.502 193.113C629.055 192.94 628.632 192.73 628.234 192.483C627.83 192.232 627.461 191.947 627.121 191.63C626.776 191.313 626.474 190.968 626.207 190.595C625.935 190.217 625.711 189.825 625.527 189.41C625.342 188.995 625.201 188.566 625.109 188.123C625.012 187.685 624.968 187.237 624.968 186.789C624.968 186.342 625.012 185.894 625.109 185.456C625.201 185.013 625.342 184.584 625.527 184.169C625.711 183.754 625.935 183.357 626.207 182.984C626.474 182.611 626.776 182.266 627.121 181.949C627.461 181.632 627.83 181.347 628.234 181.096C628.632 180.848 629.055 180.634 629.502 180.466C629.95 180.293 630.406 180.163 630.883 180.074C631.354 179.986 631.83 179.944 632.316 179.944C632.798 179.944 633.274 179.986 633.75 180.074C634.222 180.163 634.683 180.293 635.126 180.466C635.573 180.634 635.996 180.848 636.399 181.096C636.798 181.347 637.172 181.632 637.512 181.949C637.852 182.266 638.159 182.611 638.426 182.984C638.693 183.357 638.922 183.754 639.106 184.169C639.291 184.584 639.427 185.013 639.524 185.456C639.617 185.894 639.665 186.342 639.665 186.789Z" fill="#EF0753"/>
<path d="M548.748 139.34C548.748 139.792 548.7 140.235 548.607 140.678C548.515 141.117 548.374 141.546 548.189 141.961C548.005 142.376 547.776 142.772 547.509 143.145C547.242 143.518 546.936 143.864 546.595 144.185C546.255 144.502 545.886 144.787 545.482 145.034C545.084 145.286 544.656 145.496 544.214 145.668C543.767 145.841 543.305 145.971 542.833 146.055C542.362 146.144 541.881 146.19 541.4 146.19C540.919 146.19 540.442 146.144 539.966 146.055C539.494 145.971 539.033 145.841 538.59 145.668C538.143 145.496 537.72 145.286 537.317 145.034C536.919 144.787 536.544 144.502 536.204 144.185C535.864 143.864 535.558 143.518 535.29 143.145C535.023 142.772 534.795 142.376 534.61 141.961C534.425 141.546 534.289 141.117 534.192 140.678C534.1 140.235 534.051 139.792 534.051 139.34C534.051 138.892 534.1 138.449 534.192 138.006C534.289 137.568 534.425 137.139 534.61 136.724C534.795 136.309 535.023 135.913 535.29 135.539C535.558 135.166 535.864 134.821 536.204 134.5C536.544 134.182 536.919 133.898 537.317 133.651C537.72 133.399 538.143 133.189 538.59 133.017C539.033 132.844 539.494 132.714 539.966 132.63C540.442 132.541 540.919 132.494 541.4 132.494C541.881 132.494 542.362 132.541 542.833 132.63C543.305 132.714 543.767 132.844 544.214 133.017C544.656 133.189 545.084 133.399 545.482 133.651C545.886 133.898 546.255 134.182 546.595 134.5C546.936 134.821 547.242 135.166 547.509 135.539C547.776 135.913 548.005 136.309 548.189 136.724C548.374 137.139 548.515 137.568 548.607 138.006C548.7 138.449 548.748 138.892 548.748 139.34Z" fill="#EF0753"/>
<path d="M537.035 99.2541C537.035 99.7018 536.987 100.149 536.894 100.588C536.797 101.031 536.661 101.455 536.476 101.87C536.292 102.29 536.063 102.682 535.796 103.055C535.529 103.428 535.222 103.778 534.882 104.095C534.542 104.412 534.168 104.696 533.769 104.943C533.366 105.195 532.943 105.405 532.496 105.578C532.053 105.75 531.592 105.881 531.12 105.969C530.644 106.053 530.168 106.1 529.686 106.1C529.205 106.1 528.724 106.053 528.253 105.969C527.776 105.881 527.32 105.75 526.872 105.578C526.43 105.405 526.002 105.195 525.604 104.943C525.2 104.696 524.831 104.412 524.491 104.095C524.151 103.778 523.844 103.428 523.577 103.055C523.31 102.682 523.081 102.29 522.897 101.87C522.712 101.455 522.571 101.031 522.479 100.588C522.386 100.149 522.338 99.7018 522.338 99.2541C522.338 98.8018 522.386 98.3588 522.479 97.9158C522.571 97.4774 522.712 97.0484 522.897 96.6334C523.081 96.2183 523.31 95.8219 523.577 95.4489C523.844 95.0758 524.151 94.7307 524.491 94.4136C524.831 94.0918 525.2 93.812 525.604 93.5602C526.002 93.3084 526.43 93.0986 526.872 92.926C527.32 92.7535 527.776 92.6276 528.253 92.539C528.724 92.4504 529.205 92.4084 529.686 92.4084C530.168 92.4084 530.644 92.4504 531.12 92.539C531.592 92.6276 532.053 92.7535 532.496 92.926C532.943 93.0986 533.366 93.3084 533.769 93.5602C534.168 93.812 534.542 94.0918 534.882 94.4136C535.222 94.7307 535.529 95.0758 535.796 95.4489C536.063 95.8219 536.292 96.2183 536.476 96.6334C536.661 97.0484 536.797 97.4774 536.894 97.9158C536.987 98.3588 537.035 98.8018 537.035 99.2541Z" fill="#EF0753"/>
<mask id="mask2_114_365" style="mask-type:luminance" maskUnits="userSpaceOnUse" x="442" y="513" width="17" height="15">
<path d="M442.697 513.483H458.872V528H442.697V513.483Z" fill="white"/>
</mask>
<g mask="url(#mask2_114_365)">
<path d="M458.581 521.164C458.581 521.616 458.532 522.059 458.44 522.502C458.343 522.94 458.207 523.369 458.022 523.784C457.837 524.199 457.609 524.596 457.342 524.969C457.074 525.342 456.768 525.687 456.428 526.004C456.088 526.326 455.713 526.606 455.315 526.857C454.911 527.109 454.489 527.319 454.046 527.492C453.599 527.664 453.137 527.79 452.666 527.879C452.194 527.967 451.713 528.009 451.232 528.009C450.751 528.009 450.27 527.967 449.798 527.879C449.327 527.79 448.865 527.664 448.418 527.492C447.976 527.319 447.553 527.109 447.15 526.857C446.746 526.606 446.377 526.326 446.037 526.004C445.696 525.687 445.39 525.342 445.123 524.969C444.855 524.596 444.627 524.199 444.442 523.784C444.258 523.369 444.117 522.94 444.024 522.502C443.932 522.059 443.883 521.616 443.883 521.164C443.883 520.716 443.932 520.268 444.024 519.83C444.117 519.387 444.258 518.962 444.442 518.547C444.627 518.128 444.855 517.736 445.123 517.363C445.39 516.99 445.696 516.64 446.037 516.323C446.377 516.006 446.746 515.721 447.15 515.474C447.553 515.222 447.976 515.013 448.418 514.84C448.865 514.667 449.327 514.537 449.798 514.448C450.27 514.364 450.751 514.318 451.232 514.318C451.713 514.318 452.194 514.364 452.666 514.448C453.137 514.537 453.599 514.667 454.046 514.84C454.489 515.013 454.911 515.222 455.315 515.474C455.713 515.721 456.088 516.006 456.428 516.323C456.768 516.64 457.074 516.99 457.342 517.363C457.609 517.736 457.837 518.128 458.022 518.547C458.207 518.962 458.343 519.387 458.44 519.83C458.532 520.268 458.581 520.716 458.581 521.164Z" fill="#EF0753"/>
</g>
<path d="M493.653 517.657C493.653 518.104 493.609 518.552 493.512 518.991C493.42 519.434 493.279 519.863 493.094 520.278C492.909 520.693 492.686 521.089 492.413 521.462C492.146 521.835 491.845 522.18 491.5 522.497C491.16 522.814 490.79 523.099 490.387 523.351C489.988 523.598 489.565 523.812 489.118 523.98C488.671 524.153 488.214 524.283 487.738 524.372C487.266 524.461 486.79 524.503 486.304 524.503C485.823 524.503 485.347 524.461 484.87 524.372C484.399 524.283 483.937 524.153 483.495 523.98C483.048 523.812 482.625 523.598 482.221 523.351C481.823 523.099 481.449 522.814 481.108 522.497C480.768 522.18 480.462 521.835 480.195 521.462C479.927 521.089 479.699 520.693 479.514 520.278C479.33 519.863 479.194 519.434 479.096 518.991C479.004 518.552 478.955 518.104 478.955 517.657C478.955 517.209 479.004 516.761 479.096 516.323C479.194 515.88 479.33 515.451 479.514 515.036C479.699 514.621 479.927 514.229 480.195 513.852C480.462 513.478 480.768 513.133 481.108 512.816C481.449 512.499 481.823 512.215 482.221 511.963C482.625 511.716 483.048 511.506 483.495 511.333C483.937 511.161 484.399 511.03 484.87 510.942C485.347 510.853 485.823 510.811 486.304 510.811C486.79 510.811 487.266 510.853 487.738 510.942C488.214 511.03 488.671 511.161 489.118 511.333C489.565 511.506 489.988 511.716 490.387 511.963C490.79 512.215 491.16 512.499 491.5 512.816C491.845 513.133 492.146 513.478 492.413 513.852C492.686 514.229 492.909 514.621 493.094 515.036C493.279 515.451 493.42 515.88 493.512 516.323C493.609 516.761 493.653 517.209 493.653 517.657Z" fill="#EF0753"/>
<path d="M394.08 160.768C394.08 161.332 394.017 161.892 393.9 162.447C393.784 163.002 393.609 163.543 393.375 164.065C393.142 164.587 392.86 165.082 392.52 165.553C392.184 166.024 391.801 166.462 391.373 166.858C390.945 167.259 390.479 167.619 389.978 167.931C389.472 168.248 388.938 168.509 388.379 168.728C387.82 168.943 387.242 169.106 386.649 169.218C386.056 169.33 385.453 169.386 384.845 169.386C384.243 169.386 383.64 169.33 383.047 169.218C382.454 169.106 381.876 168.943 381.317 168.728C380.758 168.509 380.223 168.248 379.718 167.931C379.217 167.619 378.751 167.259 378.323 166.858C377.89 166.462 377.511 166.024 377.171 165.553C376.836 165.082 376.554 164.587 376.321 164.065C376.087 163.543 375.912 163.002 375.796 162.447C375.679 161.892 375.616 161.332 375.616 160.768C375.616 160.199 375.679 159.64 375.796 159.085C375.912 158.53 376.087 157.993 376.321 157.471C376.554 156.944 376.836 156.45 377.171 155.979C377.511 155.508 377.89 155.074 378.323 154.673C378.751 154.272 379.217 153.918 379.718 153.601C380.223 153.288 380.758 153.022 381.317 152.803C381.876 152.589 382.454 152.425 383.047 152.314C383.64 152.206 384.243 152.15 384.845 152.15C385.453 152.15 386.056 152.206 386.649 152.314C387.242 152.425 387.82 152.589 388.379 152.803C388.938 153.022 389.472 153.288 389.978 153.601C390.479 153.918 390.945 154.272 391.373 154.673C391.801 155.074 392.184 155.508 392.52 155.979C392.86 156.45 393.142 156.944 393.375 157.471C393.609 157.993 393.784 158.53 393.9 159.085C394.017 159.64 394.08 160.199 394.08 160.768Z" fill="#EF0753"/>
<path d="M446.119 117.171C446.119 117.735 446.061 118.294 445.944 118.849C445.822 119.404 445.647 119.945 445.419 120.468C445.186 120.99 444.899 121.484 444.564 121.955C444.228 122.426 443.844 122.86 443.417 123.261C442.989 123.662 442.522 124.021 442.017 124.333C441.516 124.646 440.982 124.912 440.423 125.131C439.864 125.345 439.285 125.509 438.692 125.621C438.095 125.732 437.497 125.784 436.889 125.784C436.282 125.784 435.684 125.732 435.091 125.621C434.493 125.509 433.92 125.345 433.356 125.131C432.797 124.912 432.267 124.646 431.762 124.333C431.256 124.021 430.79 123.662 430.362 123.261C429.934 122.86 429.55 122.426 429.215 121.955C428.879 121.484 428.593 120.99 428.364 120.468C428.131 119.945 427.956 119.404 427.839 118.849C427.718 118.294 427.66 117.735 427.66 117.171C427.66 116.602 427.718 116.042 427.839 115.487C427.956 114.932 428.131 114.391 428.364 113.869C428.593 113.347 428.879 112.852 429.215 112.381C429.55 111.91 429.934 111.477 430.362 111.076C430.79 110.675 431.256 110.316 431.762 110.003C432.267 109.691 432.797 109.425 433.356 109.206C433.92 108.991 434.493 108.828 435.091 108.716C435.684 108.604 436.282 108.553 436.889 108.553C437.497 108.553 438.095 108.604 438.692 108.716C439.285 108.828 439.864 108.991 440.423 109.206C440.982 109.425 441.516 109.691 442.017 110.003C442.522 110.316 442.989 110.675 443.417 111.076C443.844 111.477 444.228 111.91 444.564 112.381C444.899 112.852 445.186 113.347 445.419 113.869C445.647 114.391 445.822 114.932 445.944 115.487C446.061 116.042 446.119 116.602 446.119 117.171Z" fill="#EF0753"/>
<path d="M170.362 157.597C170.362 158.166 170.304 158.725 170.182 159.28C170.066 159.835 169.891 160.372 169.658 160.899C169.424 161.421 169.142 161.915 168.807 162.386C168.467 162.857 168.088 163.291 167.655 163.692C167.227 164.093 166.761 164.447 166.26 164.764C165.755 165.077 165.225 165.343 164.661 165.562C164.102 165.776 163.524 165.94 162.931 166.052C162.338 166.159 161.735 166.215 161.133 166.215C160.525 166.215 159.922 166.159 159.329 166.052C158.736 165.94 158.158 165.776 157.599 165.562C157.04 165.343 156.506 165.077 156.005 164.764C155.5 164.447 155.033 164.093 154.605 163.692C154.178 163.291 153.794 162.857 153.458 162.386C153.118 161.915 152.836 161.421 152.603 160.899C152.37 160.372 152.195 159.835 152.078 159.28C151.961 158.725 151.903 158.166 151.903 157.597C151.903 157.033 151.961 156.473 152.078 155.918C152.195 155.363 152.37 154.822 152.603 154.3C152.836 153.778 153.118 153.283 153.458 152.812C153.794 152.341 154.178 151.908 154.605 151.507C155.033 151.106 155.5 150.747 156.005 150.434C156.506 150.122 157.04 149.856 157.599 149.637C158.158 149.422 158.736 149.259 159.329 149.147C159.922 149.035 160.525 148.984 161.133 148.979C161.735 148.984 162.338 149.035 162.931 149.147C163.524 149.259 164.102 149.422 164.661 149.637C165.225 149.856 165.755 150.122 166.26 150.434C166.761 150.747 167.227 151.106 167.655 151.507C168.088 151.908 168.467 152.341 168.807 152.812C169.142 153.283 169.424 153.778 169.658 154.3C169.891 154.822 170.066 155.363 170.182 155.918C170.304 156.473 170.362 157.033 170.362 157.597Z" fill="#EF0753"/>
<path d="M44.7629 293.5C44.7629 294.218 44.69 294.927 44.5393 295.627C44.3886 296.331 44.1699 297.012 43.8734 297.674C43.5818 298.336 43.2222 298.961 42.7945 299.558C42.3667 300.15 41.8856 300.705 41.3412 301.209C40.8017 301.717 40.2088 302.165 39.5721 302.566C38.9354 302.962 38.2598 303.298 37.5551 303.573C36.8455 303.843 36.1164 304.053 35.3631 304.193C34.6098 304.333 33.8516 304.403 33.0836 304.403C32.3157 304.403 31.5575 304.333 30.8042 304.193C30.0557 304.053 29.3218 303.843 28.6171 303.573C27.9075 303.298 27.2319 302.962 26.5952 302.566C25.9585 302.165 25.3655 301.717 24.826 301.209C24.2817 300.705 23.8005 300.15 23.3728 299.558C22.9451 298.961 22.5855 298.336 22.2938 297.674C22.0022 297.012 21.7787 296.331 21.628 295.627C21.4773 294.927 21.4044 294.218 21.4044 293.5C21.4044 292.787 21.4773 292.078 21.628 291.374C21.7787 290.674 22.0022 289.993 22.2938 289.331C22.5855 288.669 22.9451 288.039 23.3728 287.447C23.8005 286.85 24.2817 286.3 24.826 285.796C25.3655 285.288 25.9585 284.836 26.5952 284.439C27.2319 284.043 27.9075 283.707 28.6171 283.432C29.3218 283.157 30.0557 282.952 30.8042 282.812C31.5575 282.672 32.3157 282.602 33.0836 282.602C33.8516 282.602 34.6098 282.672 35.3631 282.812C36.1164 282.952 36.8455 283.157 37.5551 283.432C38.2598 283.707 38.9354 284.043 39.5721 284.439C40.2088 284.836 40.8017 285.288 41.3412 285.796C41.8856 286.3 42.3667 286.85 42.7945 287.447C43.2222 288.039 43.5818 288.669 43.8734 289.331C44.1699 289.993 44.3886 290.674 44.5393 291.374C44.69 292.078 44.7629 292.787 44.7629 293.5Z" fill="#EF0753"/>
<mask id="mask3_114_365" style="mask-type:luminance" maskUnits="userSpaceOnUse" x="0" y="178" width="25" height="23">
<path d="M0 178.022H24.6367V200.705H0V178.022Z" fill="white"/>
</mask>
<g mask="url(#mask3_114_365)">
<path d="M23.9952 189.447C23.9952 190.161 23.9223 190.87 23.7716 191.574C23.6209 192.273 23.4022 192.954 23.1057 193.616C22.8141 194.279 22.4545 194.908 22.0268 195.5C21.6039 196.097 21.1179 196.648 20.5735 197.151C20.034 197.659 19.4411 198.112 18.8044 198.508C18.1677 198.905 17.497 199.24 16.7874 199.515C16.0778 199.791 15.3487 199.996 14.5954 200.136C13.8421 200.276 13.0839 200.346 12.3159 200.346C11.548 200.346 10.7898 200.276 10.0365 200.136C9.28799 199.996 8.55409 199.791 7.84935 199.515C7.13975 199.24 6.46418 198.905 5.82748 198.508C5.19079 198.112 4.6027 197.659 4.05835 197.151C3.514 196.648 3.03283 196.097 2.60513 195.5C2.18228 194.908 1.82262 194.279 1.52615 193.616C1.23453 192.954 1.01096 192.273 0.86029 191.574C0.714483 190.87 0.636719 190.161 0.636719 189.447C0.636719 188.729 0.714483 188.02 0.86029 187.321C1.01096 186.617 1.23453 185.936 1.52615 185.274C1.82262 184.611 2.18228 183.987 2.60513 183.39C3.03283 182.797 3.514 182.243 4.05835 181.739C4.6027 181.231 5.19079 180.783 5.82748 180.382C6.46418 179.985 7.13975 179.65 7.84935 179.375C8.55409 179.104 9.28799 178.894 10.0365 178.754C10.7898 178.614 11.548 178.544 12.3159 178.544C13.0839 178.544 13.8421 178.614 14.5954 178.754C15.3487 178.894 16.0778 179.104 16.7874 179.375C17.497 179.65 18.1677 179.985 18.8044 180.382C19.4411 180.783 20.034 181.231 20.5735 181.739C21.1179 182.243 21.6039 182.797 22.0268 183.39C22.4545 183.987 22.8141 184.611 23.1057 185.274C23.4022 185.936 23.6209 186.617 23.7716 187.321C23.9223 188.02 23.9952 188.729 23.9952 189.447Z" fill="#EF0753"/>
</g>
</g>
</svg>
