<?xml version="1.0" encoding="UTF-8"?>
<svg id="Layer_2" data-name="Layer 2" xmlns="http://www.w3.org/2000/svg" viewBox="0 0 300.22 42.86">
  <defs>
    <style>
      .cls-1 {
        fill: #16284c;
      }

      .cls-1, .cls-2 {
        stroke-width: 0px;
      }

      .cls-2 {
        fill: #338ffa;
      }
    </style>
  </defs>
  <g id="Layer_2-2" data-name="Layer 2">
    <g>
      <path class="cls-2" d="m91.83,19.16c1.14-1.86,1.74-3.96,1.74-6.3,0-3.3-1.2-6.12-3.54-8.46s-5.16-3.55-8.46-3.55-6.13,1.21-8.47,3.55-3.54,5.16-3.54,8.46c0,2.34.6,4.44,1.74,6.3,1.14,1.92,2.71,3.36,4.75,4.38l-3.48,19.33h18l-3.42-19.33c1.98-1.01,3.54-2.46,4.68-4.38Zm-10.26-2.39c-2.28,0-4.11-1.84-4.11-4.11s1.84-4.11,4.11-4.11,4.11,1.84,4.11,4.11-1.85,4.11-4.11,4.11Zm10.26,2.39c1.14-1.86,1.74-3.96,1.74-6.3,0-3.3-1.2-6.12-3.54-8.46s-5.16-3.55-8.46-3.55-6.13,1.21-8.47,3.55-3.54,5.16-3.54,8.46c0,2.34.6,4.44,1.74,6.3,1.14,1.92,2.71,3.36,4.75,4.38l-3.48,19.33h18l-3.42-19.33c1.98-1.01,3.54-2.46,4.68-4.38Zm-10.26-2.39c-2.28,0-4.11-1.84-4.11-4.11s1.84-4.11,4.11-4.11,4.11,1.84,4.11,4.11-1.85,4.11-4.11,4.11Zm10.26,2.39c1.14-1.86,1.74-3.96,1.74-6.3,0-3.3-1.2-6.12-3.54-8.46s-5.16-3.55-8.46-3.55-6.13,1.21-8.47,3.55-3.54,5.16-3.54,8.46c0,2.34.6,4.44,1.74,6.3,1.14,1.92,2.71,3.36,4.75,4.38l-3.48,19.33h18l-3.42-19.33c1.98-1.01,3.54-2.46,4.68-4.38Zm-10.26-2.39c-2.28,0-4.11-1.84-4.11-4.11s1.84-4.11,4.11-4.11,4.11,1.84,4.11,4.11-1.85,4.11-4.11,4.11Z"/>
      <path class="cls-1" d="m61.53,12.95c-.4-1.43-.97-2.76-1.7-4.01-.73-1.25-1.61-2.39-2.64-3.42-1.02-1.02-2.16-1.9-3.4-2.63-1.24-.74-2.57-1.3-3.99-1.7-1.12-.31-2.27-.5-3.46-.57v-.04H0v42.01h8.41v-8.41h8.41c2.3,0,4.47-.44,6.52-1.31,2.04-.88,3.82-2.08,5.34-3.61,1.53-1.52,2.73-3.3,3.61-5.34.87-2.05,1.31-4.22,1.31-6.52,0-1.55-.2-3.03-.6-4.46-.39-1.4-.94-2.72-1.67-3.95h14.01c1.15,0,2.24.22,3.25.66,1.02.44,1.91,1.04,2.67,1.8.76.77,1.36,1.66,1.8,2.69.44,1.02.66,2.11.66,3.26s-.22,2.24-.66,3.27c-.44,1.02-1.04,1.92-1.8,2.68-.76.76-1.65,1.36-2.67,1.8-1.01.44-2.1.66-3.25.66h-8.41v8.38l9.41-.06,3.66,8.47h8.94l-4.66-10.99c1.21-.76,2.3-1.66,3.28-2.69.98-1.04,1.8-2.17,2.47-3.4.68-1.23,1.2-2.53,1.56-3.9.36-1.37.54-2.77.54-4.22,0-1.54-.2-3.03-.6-4.45Zm-41.46-3.3c1.01.44,1.9,1.04,2.66,1.8.77.76,1.37,1.66,1.81,2.68.44,1.03.66,2.11.66,3.27s-.22,2.24-.66,3.26c-.44,1.03-1.04,1.92-1.81,2.68-.76.77-1.65,1.37-2.66,1.81-1.02.44-2.1.66-3.25.66h-8.41V8.99h8.41c1.15,0,2.23.22,3.25.66Z"/>
      <path class="cls-1" d="m274.99,11.79v14.02c0,.24.01.48.03.71v-13.92c0-.27,0-.54-.03-.81Z"/>
      <path class="cls-1" d="m266.62,12.17v13.64c0,.29.01.58.02.86v-14.07c0-.15-.01-.29-.02-.43Z"/>
      <rect class="cls-1" x="217.13" y=".58" width="8.41" height="42.01"/>
      <path class="cls-1" d="m168.27,5.5c-1.53-1.52-3.31-2.72-5.35-3.6s-4.22-1.32-6.55-1.32-4.51.44-6.55,1.32c-2.04.88-3.81,2.08-5.33,3.6-1.51,1.53-2.71,3.31-3.59,5.35s-1.32,4.22-1.32,6.55v25.19h8.38v-8.41h16.82v8.41h8.41v-25.19c0-2.33-.44-4.51-1.32-6.55s-2.08-3.82-3.6-5.35Zm-3.49,20.31h-16.82v-8.41c0-1.16.22-2.24.66-3.27.44-1.02,1.04-1.92,1.8-2.68.77-.76,1.66-1.36,2.68-1.8,1.03-.44,2.12-.66,3.27-.66s2.24.22,3.27.66c1.02.44,1.92,1.04,2.68,1.8.76.76,1.36,1.66,1.8,2.68.44,1.03.66,2.11.66,3.27v8.41Z"/>
      <path class="cls-1" d="m210.64,25.09c.66,1.53.99,3.17.99,4.9s-.33,3.37-.99,4.9c-.65,1.52-1.55,2.85-2.69,4-1.14,1.14-2.48,2.04-4.02,2.71-1.53.66-3.16.99-4.9.99h-18.66v-8.41h18.66c.58,0,1.13-.1,1.64-.32.51-.21.95-.51,1.33-.89s.68-.83.89-1.33c.22-.51.33-1.06.33-1.65s-.11-1.13-.33-1.64c-.21-.5-.51-.95-.89-1.33s-.82-.68-1.33-.89c-.51-.22-1.06-.32-1.64-.32h-8.41c-1.74,0-3.37-.34-4.89-1-1.53-.66-2.86-1.57-4-2.71s-2.05-2.48-2.71-4.01c-.67-1.54-1-3.17-1-4.91s.33-3.37,1-4.89c.66-1.53,1.57-2.86,2.71-4,1.14-1.15,2.47-2.05,4-2.71,1.52-.67,3.15-1,4.89-1h19.28v8.41h-19.28c-.59,0-1.13.11-1.64.32-.51.22-.95.51-1.33.89-.39.39-.68.83-.9,1.34-.21.51-.32,1.05-.32,1.64s.11,1.14.32,1.65c.22.52.51.97.9,1.35.38.38.82.68,1.33.89.51.22,1.05.33,1.64.33h8.41c1.74,0,3.37.32,4.9.98,1.54.65,2.88,1.55,4.02,2.69,1.14,1.15,2.04,2.48,2.69,4.02Z"/>
      <polygon class="cls-1" points="127.34 .58 136.95 .58 123.15 42.59 114.74 42.59 101 .58 110.55 .58 118.93 28.62 127.34 .58"/>
      <path class="cls-1" d="m300.22.59v25.22c0,2.32-.44,4.51-1.32,6.55s-2.08,3.82-3.6,5.33c-1.53,1.51-3.31,2.71-5.35,3.59-2.04.88-4.22,1.32-6.55,1.32s-4.5-.44-6.55-1.32c-.64-.28-1.25-.58-1.83-.92-1.29-.74-2.45-1.63-3.5-2.67-1.51-1.51-2.71-3.29-3.59-5.33-.76-1.78-1.19-3.68-1.29-5.69v-14.07c0-.15-.01-.29-.02-.43-.04-.43-.15-.83-.31-1.21-.23-.51-.53-.96-.91-1.34s-.83-.68-1.33-.89c-.51-.21-1.06-.32-1.64-.32s-1.14.11-1.64.32c-.51.21-.96.51-1.34.89-.38.38-.68.83-.89,1.34-.22.5-.32,1.05-.32,1.64v30h-8.41V12.6c0-.59-.11-1.14-.32-1.64-.22-.51-.52-.96-.9-1.34s-.82-.68-1.33-.89-1.05-.32-1.64-.32-1.13.11-1.64.32-.95.51-1.33.89c-.39.38-.68.83-.9,1.34-.21.5-.32,1.05-.32,1.64v30h-8.41V12.6c0-1.74.33-3.38.98-4.91.66-1.53,1.56-2.87,2.7-4.01,1.14-1.15,2.48-2.04,4.01-2.7,1.54-.65,3.17-.98,4.91-.98,1.56,0,3.07.28,4.51.83,1.45.56,2.74,1.37,3.9,2.42,1.15-1.05,2.44-1.86,3.88-2.42,1.43-.55,2.93-.83,4.5-.83,1.47,0,2.87.24,4.19.71.24.08.48.17.71.27,1.54.66,2.87,1.55,4.02,2.7,1.14,1.14,2.04,2.48,2.69,4.01.56,1.29.87,2.66.95,4.1v14.02c0,.24.01.48.03.71.07.89.28,1.74.63,2.54.44,1.02,1.04,1.91,1.81,2.67.76.76,1.65,1.36,2.68,1.8,1.02.44,2.11.66,3.26.66s2.24-.22,3.27-.66c1.02-.44,1.92-1.04,2.68-1.8s1.36-1.65,1.8-2.67c.44-1.01.66-2.1.66-3.25V.59h8.41Z"/>
    </g>
  </g>
</svg>